.
 
http://www.scenetime.com    -  Hottest private tracker on the net. !!!

New release on http://www.scenetime.com

        Seed back for speed


...................................NFO:.................................................








































          
          
              
              
                    
                    
                    
                    

Bridesmaids.2011.BRRip.XviD.AC3-SiC

Poster:
[img]http://img819.imageshack.us/img819/9339/mv5bmjayotmymzuxnl5bml5.jpg[/img]

IMDB Link: 
http://www.imdb.com/title/tt1478338/

Description:
Picked as her best friend's maid of honor, lovelorn and broke Annie looks to bluff her way through the expensive and bizarre rituals with an oddball group of bridesmaids. 

MediaInfo:
General
Complete name                    : Bridesmaids.2011.BRRip.XviD.AC3-SiC.avi
Format                           : AVI
Format/Info                      : Audio Video Interleave
File size                        : 1.37 GiB
Duration                         : 2h 10mn
Overall bit rate                 : 1 506 Kbps

Video
ID                               : 0
Format                           : MPEG-4 Visual
Format profile                   : Advanced Simple@L5
Format settings, BVOP            : 2
Format settings, QPel            : No
Format settings, GMC             : No warppoints
Format settings, Matrix          : Default (MPEG)
Muxing mode                      : Packed bitstream
Codec ID                         : XVID
Codec ID/Hint                    : XviD
Duration                         : 2h 10mn
Bit rate                         : 1 114 Kbps
Width                            : 720 pixels
Height                           : 304 pixels
Display aspect ratio             : 2.35:1
Frame rate                       : 23.976 fps
Color space                      : YUV
Chroma subsampling               : 4:2:0
Bit depth                        : 8 bits
Scan type                        : Progressive
Compression mode                 : Lossy
Bits/(Pixel*Frame)               : 0.212
Stream size                      : 1.01 GiB (74%)
Writing library                  : XviD 64

Audio
ID                               : 1
Format                           : AC-3
Format/Info                      : Audio Coding 3
Mode extension                   : CM (complete main)
Codec ID                         : 2000
Duration                         : 2h 10mn
Bit rate mode                    : Constant
Bit rate                         : 384 Kbps
Channel(s)                       : 6 channels
Channel positions                : Front: L C R, Side: L R, LFE
Sampling rate                    : 48.0 KHz
Bit depth                        : 16 bits
Compression mode                 : Lossy
Stream size                      : 358 MiB (25%)
Alignment                        : Aligned on interleaves
Interleave, duration             : 64 ms (1.53 video frames)
Interleave, preload duration     : 192 ms
Title                            : refined-bridesmaids-720p - [2] English done


Screenshots:
[img]http://img854.imageshack.us/img854/4798/snap1c.png[/img]
[img]http://img221.imageshack.us/img221/2830/snap2ooz.png[/img]
[img]http://img268.imageshack.us/img268/8474/snap3ke.png[/img]
[img]http://img29.imageshack.us/img29/9782/snap4rs.png[/img]
[img]http://img26.imageshack.us/img26/9102/snap5h.png[/img]
[img]http://img571.imageshack.us/img571/4043/snap6e.png[/img]


Note : N/A

Source: REFiNED 720p

Enjoy!

Respects to CaptainHomey, Cyanide, CM8, Rx, THC, ELEKTRI4KA, 
Killerhz, PA, YeFsTe, Box, MrRep and everyone in the struggle...